<?xml version="1.0" encoding="utf-8"?>
<!-- Generator: Adobe Illustrator 23.0.5, SVG Export Plug-In . SVG Version: 6.00 Build 0)  -->
<svg version="1.1" id="Layer_1" xmlns="http://www.w3.org/2000/svg" xmlns:xlink="http://www.w3.org/1999/xlink" x="0px" y="0px"
	 viewBox="0 0 200 88" style="enable-background:new 0 0 200 88;" xml:space="preserve">
<style type="text/css">
	.st0{fill-rule:evenodd;clip-rule:evenodd;fill:#FFDD00;fill-opacity:0;}
	.st1{fill-rule:evenodd;clip-rule:evenodd;fill:rgb(240,240,240);}
</style>
<g>
	<path class="st0" d="M0-52.9h200v200H0V-52.9z"/>
	<path class="st1" d="M32.4,51.4L32.4,51.4c2.1-1.5,5.4-4,5.4-12.1c0-10.4-5.5-15.1-12.9-15.1H8.8v57.2h16c9.1,0,13.5-6.7,13.5-16.7
		C38.4,55.4,34.7,52.9,32.4,51.4z M18.3,33.1h5.1c2.7,0,4.8,1.9,4.8,7.3c0,5.4-2.5,7.3-4.8,7.3h-5.1V33.1z M23.6,72.6h-5.3V56.5h5.3
		c3.6,0,5.3,2.7,5.3,7.5C28.9,70.5,26.9,72.6,23.6,72.6z M75.1,62.3c0-7.1-2.2-9.1-5.3-10.9v0c2.1-1.5,5.4-4,5.4-12
		c0-10.4-5.4-15.1-12.8-15.1H46.3v57.2h9.5l0-25H61c2.7,0,4.6,2.2,4.6,7.3v17.7h9.6C75.1,81.5,75.1,62.3,75.1,62.3z M55.8,33.1H61
		c2.7,0,4.8,1.9,4.8,7.3c0,5.4-2.5,7.3-4.8,7.3h-5.1C55.8,47.6,55.8,33.1,55.8,33.1z M99.8,5.1c-4,0-15.6,0.9-15.6,12.5v63.8h9.5
		v-25h12.3l0,25h9.5V17.6C115.4,6,103.8,5.1,99.8,5.1z M93.6,19c0-4.3,4-4.9,6.2-4.9c2.2,0,6.2,0.5,6.2,4.9l0,28.6H93.6L93.6,19z
		 M143.8,24.2l0,45.1c0,2.3-1.9,3.8-4.7,3.8c-2.8,0-4.7-1.5-4.7-3.8l0-45.1l-9.5,0l0,46.6c0,7.4,6.5,10.3,11.5,11h5.3
		c5-0.7,11.5-3.6,11.5-11V24.2H143.8L143.8,24.2z M181.7,81.5v-45c0-2.3-1.9-3.8-4.7-3.8c-2.8,0-4.7,1.5-4.7,3.8l0,45l-9.5,0l0-46.6
		c0-8.9,9.2-11.2,14.2-11.2c5,0,14.2,2.4,14.2,11.2v46.5L181.7,81.5L181.7,81.5L181.7,81.5z"/>
</g>
</svg>
